<svg fill="none" xmlns="http://www.w3.org/2000/svg" viewBox="0 0 176 173"><g filter="url(#a)"><path d="m9.5 87.5 39.25-67.55h78.5L166.5 87.5l-39.25 67.55h-78.5L9.5 87.5Z" fill="#005CB1"/></g><g filter="url(#b)" shape-rendering="crispEdges"><path d="M30.6 120.63V56.05l13.5-25.58v112.38l-13.5-22.22Z" fill="#00847C" fill-opacity=".75"/><path d="m42.1 135.71-9.5-15.64V56.54l9.5-18v97.17Z" stroke="#fff" stroke-opacity=".25" stroke-width="4"/></g><g filter="url(#c)" shape-rendering="crispEdges"><path d="M145.4 55.21v64.16l-13.5 23.07V32.98l13.5 22.23Z" fill="#007C84" fill-opacity=".75"/><path d="m133.9 40.13 9.5 15.64v63.06l-9.5 16.23V40.13Z" stroke="#fff" stroke-opacity=".25" stroke-width="4"/></g><path d="M102.77 19.56v135.46H73.23V19.56h29.54Z" fill="#006AA6"/><path d="M88.42 21.56h12.35v131.46H75.23V21.56h13.2Z" stroke="#fff" stroke-opacity=".65" stroke-width="4"/><g filter="url(#d)"><path d="m9.5 87.5 39.25-67.55h78.5L166.5 87.5l-39.25 67.55h-78.5L9.5 87.5Z" stroke="#fff" stroke-width="6" shape-rendering="crispEdges"/></g><g filter="url(#e)"><g filter="url(#f)"><path d="m45.8 87.5 21.1-36.32h42.2l21.1 36.32-21.1 36.32H66.9L45.8 87.5Z" fill="#009CCD"/><path d="M68.05 121.82 48.11 87.5l19.94-34.32h39.9L127.9 87.5l-19.94 34.32h-39.9Z" stroke="#fff" stroke-width="4"/></g><g filter="url(#g)"><path d="M69.82 92.52a10 10 0 0 1 0-10.04l4.74-8.16a10 10 0 0 1 8.65-4.98h9.59a10 10 0 0 1 8.64 4.98l4.75 8.16a10 10 0 0 1 0 10.04l-4.75 8.16a10 10 0 0 1-8.64 4.98h-9.6a10 10 0 0 1-8.64-4.98l-4.74-8.16Z" fill="#00FFF0"/><path d="m71.55 83.48 4.74-8.16a8 8 0 0 1 6.92-3.98h9.59a8 8 0 0 1 6.91 3.98l4.75 8.16a8 8 0 0 1 0 8.04l-4.75 8.16a8 8 0 0 1-6.91 3.98h-9.6a8 8 0 0 1-6.91-3.98l-4.74-8.16a8 8 0 0 1 0-8.04Z" stroke="#fff" stroke-width="4"/></g></g><defs><filter id="a" x="5.5" y="16.95" width="165" height="143.1" filterUnits="userSpaceOnUse" color-interpolation-filters="sRGB"><feFlood flood-opacity="0" result="BackgroundImageFix"/><feColorMatrix in="SourceAlpha" values="0 0 0 0 0 0 0 0 0 0 0 0 0 0 0 0 0 0 127 0" result="hardAlpha"/><feOffset dy="1"/><feGaussianBlur stdDeviation="2"/><feComposite in2="hardAlpha" operator="out"/><feColorMatrix values="0 0 0 0 0 0 0 0 0 0 0 0 0 0 0 0 0 0 0.25 0"/><feBlend in2="BackgroundImageFix" result="effect1_dropShadow_30:809"/><feBlend in="SourceGraphic" in2="effect1_dropShadow_30:809" result="shape"/></filter><filter id="b" x=".6" y=".47" width="73.51" height="172.39" filterUnits="userSpaceOnUse" color-interpolation-filters="sRGB"><feFlood flood-opacity="0" result="BackgroundImageFix"/><feColorMatrix in="SourceAlpha" values="0 0 0 0 0 0 0 0 0 0 0 0 0 0 0 0 0 0 127 0" result="hardAlpha"/><feOffset/><feGaussianBlur stdDeviation="15"/><feComposite in2="hardAlpha" operator="out"/><feColorMatrix values="0 0 0 0 1 0 0 0 0 0 0 0 0 0 0.78 0 0 0 0.5 0"/><feBlend in2="BackgroundImageFix" result="effect1_dropShadow_30:809"/><feBlend in="SourceGraphic" in2="effect1_dropShadow_30:809" result="shape"/></filter><filter id="c" x="101.89" y="2.98" width="73.51" height="169.45" filterUnits="userSpaceOnUse" color-interpolation-filters="sRGB"><feFlood flood-opacity="0" result="BackgroundImageFix"/><feColorMatrix in="SourceAlpha" values="0 0 0 0 0 0 0 0 0 0 0 0 0 0 0 0 0 0 127 0" result="hardAlpha"/><feOffset/><feGaussianBlur stdDeviation="15"/><feComposite in2="hardAlpha" operator="out"/><feColorMatrix values="0 0 0 0 1 0 0 0 0 0 0 0 0 0 0.78 0 0 0 0.5 0"/><feBlend in2="BackgroundImageFix" result="effect1_dropShadow_30:809"/><feBlend in="SourceGraphic" in2="effect1_dropShadow_30:809" result="shape"/></filter><filter id="d" x="2.03" y="13.95" width="171.94" height="149.1" filterUnits="userSpaceOnUse" color-interpolation-filters="sRGB"><feFlood flood-opacity="0" result="BackgroundImageFix"/><feColorMatrix in="SourceAlpha" values="0 0 0 0 0 0 0 0 0 0 0 0 0 0 0 0 0 0 127 0" result="hardAlpha"/><feOffset dy="1"/><feGaussianBlur stdDeviation="2"/><feComposite in2="hardAlpha" operator="out"/><feColorMatrix values="0 0 0 0 0 0 0 0 0 0 0 0 0 0 0 0 0 0 0.25 0"/><feBlend in2="BackgroundImageFix" result="effect1_dropShadow_30:809"/><feBlend in="SourceGraphic" in2="effect1_dropShadow_30:809" result="shape"/></filter><filter id="e" x="35.8" y="41.18" width="104.41" height="92.63" filterUnits="userSpaceOnUse" color-interpolation-filters="sRGB"><feFlood flood-opacity="0" result="BackgroundImageFix"/><feColorMatrix in="SourceAlpha" values="0 0 0 0 0 0 0 0 0 0 0 0 0 0 0 0 0 0 127 0" result="hardAlpha"/><feOffset/><feGaussianBlur stdDeviation="5"/><feComposite in2="hardAlpha" operator="out"/><feColorMatrix values="0 0 0 0 0 0 0 0 0 0.429167 0 0 0 0 0.377667 0 0 0 1 0"/><feBlend in2="BackgroundImageFix" result="effect1_dropShadow_30:809"/><feColorMatrix in="SourceAlpha" values="0 0 0 0 0 0 0 0 0 0 0 0 0 0 0 0 0 0 127 0" result="hardAlpha"/><feOffset dy="4"/><feGaussianBlur stdDeviation="2"/><feComposite in2="hardAlpha" operator="out"/><feColorMatrix values="0 0 0 0 0 0 0 0 0 0.361667 0 0 0 0 0.516667 0 0 0 0.75 0"/><feBlend in2="effect1_dropShadow_30:809" result="effect2_dropShadow_30:809"/><feBlend in="SourceGraphic" in2="effect2_dropShadow_30:809" result="shape"/></filter><filter id="f" x="15.8" y="21.18" width="144.41" height="132.63" filterUnits="userSpaceOnUse" color-interpolation-filters="sRGB"><feFlood flood-opacity="0" result="BackgroundImageFix"/><feColorMatrix in="SourceAlpha" values="0 0 0 0 0 0 0 0 0 0 0 0 0 0 0 0 0 0 127 0" result="hardAlpha"/><feOffset/><feGaussianBlur stdDeviation="15"/><feComposite in2="hardAlpha" operator="out"/><feColorMatrix values="0 0 0 0 0.241667 0 0 0 0 0 0 0 0 0 0.1885 0 0 0 1 0"/><feBlend in2="BackgroundImageFix" result="effect1_dropShadow_30:809"/><feColorMatrix in="SourceAlpha" values="0 0 0 0 0 0 0 0 0 0 0 0 0 0 0 0 0 0 127 0" result="hardAlpha"/><feOffset dy="4"/><feGaussianBlur stdDeviation="2"/><feComposite in2="hardAlpha" operator="out"/><feColorMatrix values="0 0 0 0 0 0 0 0 0 0 0 0 0 0 0 0 0 0 0.25 0"/><feBlend in2="effect1_dropShadow_30:809" result="effect2_dropShadow_30:809"/><feBlend in="SourceGraphic" in2="effect2_dropShadow_30:809" result="shape"/></filter><filter id="g" x="64.46" y="66.34" width="47.07" height="44.32" filterUnits="userSpaceOnUse" color-interpolation-filters="sRGB"><feFlood flood-opacity="0" result="BackgroundImageFix"/><feColorMatrix in="SourceAlpha" values="0 0 0 0 0 0 0 0 0 0 0 0 0 0 0 0 0 0 127 0" result="hardAlpha"/><feOffset dy="1"/><feGaussianBlur stdDeviation="2"/><feComposite in2="hardAlpha" operator="out"/><feColorMatrix values="0 0 0 0 0 0 0 0 0 0 0 0 0 0 0 0 0 0 0.25 0"/><feBlend in2="BackgroundImageFix" result="effect1_dropShadow_30:809"/><feBlend in="SourceGraphic" in2="effect1_dropShadow_30:809" result="shape"/></filter></defs></svg>