<svg xmlns="http://www.w3.org/2000/svg" xmlns:xlink="http://www.w3.org/1999/xlink" width="700pt" height="700pt" version="1.1" viewBox="200 0 290 600">
 <g>
  <path fill="rgb(101, 255, 255)" stroke="rgb(101, 255, 255)" stroke-width="8" d="m338.8 76.719v259.28l-74.48-69.441-15.121 16.242 92.961 86.801c2.2383 2.2383 5.0391 2.8008 7.8398 2.8008s5.6016-1.1211 7.8398-2.8008l92.961-86.801-15.121-16.238-74.48 69.438v-259.28z"/>
  <path fill="rgb(101, 255, 255)" stroke="rgb(101, 255, 255)" stroke-width="8" d="m530.88 229.6c0-36.961-30.238-67.199-67.199-67.199l-40.879-0.003906v22.398h40.879c24.641 0 44.801 20.16 44.801 44.801v197.68c0 24.641-20.16 44.801-44.801 44.801h-227.36c-24.641 0-44.801-20.16-44.801-44.801v-197.68c0-24.641 20.16-44.801 44.801-44.801h40.879v-22.398h-40.879c-36.961 0-67.199 30.238-67.199 67.199v197.68c0 36.961 30.238 67.199 67.199 67.199h227.36c36.961 0 67.199-30.238 67.199-67.199z"/>
 </g>
</svg>