<svg fill="none" xmlns="http://www.w3.org/2000/svg" viewBox="0 20 209 165" preserveAspectRatio="none"><g filter="url(#a)"><path d="M185.08 92.5 104.54 30 24 92.5l33 82h95.08l33-82Z" fill="#003465"/></g><g filter="url(#b)"><path d="M87 174.5v-131l17.25-13 18.25 13v131H87Z" fill="#0076E3"/><path d="M89 172.5v-128l15.28-11.52 16.22 11.55V172.5H89Z" stroke="#fff" stroke-opacity=".65" stroke-width="4"/></g><g filter="url(#c)" shape-rendering="crispEdges"><path d="M124.5 174.81 166 77.5 179 88l-35.4 86.81h-19.1Z" fill="#0076E3" fill-opacity=".75"/><path d="M142.25 172.81h-14.72l39.27-92.1 9.79 7.91-34.34 84.2Z" stroke="#fff" stroke-opacity=".25" stroke-width="4"/></g><g filter="url(#d)" shape-rendering="crispEdges"><path d="M83.88 174.06 43.23 76.39 30.14 86.77 64.8 173.9l19.1.17Z" fill="#0076E3" fill-opacity=".75"/><path d="m66.15 171.9 14.72.13L42.4 79.6l-9.85 7.82 33.6 84.48Z" stroke="#fff" stroke-opacity=".25" stroke-width="4"/></g><g filter="url(#e)"><path d="M185.08 92.5 104.54 30 24 92.5l33 82h95.08l33-82Z" stroke="#fff" stroke-width="6" shape-rendering="crispEdges"/></g><g filter="url(#f)"><g filter="url(#g)"><path d="M101.4 68.15a5 5 0 0 1 7.93 0l13.02 16.94a5 5 0 0 0 2.36 1.69L145 93.66a5 5 0 0 1 2.47 7.64l-12.23 17.19a5 5 0 0 0-.93 2.8l-.4 21.05a5 5 0 0 1-6.43 4.7l-20.68-6.19a5 5 0 0 0-2.87 0l-20.69 6.2a5 5 0 0 1-6.43-4.7l-.4-21.06a5 5 0 0 0-.92-2.8l-12.23-17.2a5 5 0 0 1 2.47-7.63l20.29-6.88a5 5 0 0 0 2.36-1.69l13.02-16.94Z" fill="#40B2E2"/><path d="M102.98 69.37a3 3 0 0 1 4.76 0l13.02 16.94a7 7 0 0 0 3.3 2.36l20.3 6.89a3 3 0 0 1 1.48 4.58l-12.23 17.19a7 7 0 0 0-1.3 3.92l-.4 21.06a3 3 0 0 1-3.85 2.81l-20.69-6.18a7 7 0 0 0-4.01 0l-20.69 6.19a3 3 0 0 1-3.86-2.82l-.4-21.06a7 7 0 0 0-1.29-3.92l-12.23-17.2a3 3 0 0 1 1.48-4.57l20.3-6.89a7 7 0 0 0 3.3-2.36l13.02-16.94Z" stroke="#fff" stroke-width="4"/></g><g filter="url(#h)"><path d="M108.96 130.85a5 5 0 0 1-7.92 0l-4.74-6.15a5 5 0 0 0-2.36-1.69l-7.3-2.47a5 5 0 0 1-2.47-7.64l4.35-6.1a5 5 0 0 0 .93-2.81l.14-7.54a5 5 0 0 1 6.43-4.7l7.55 2.26a5 5 0 0 0 2.86 0l7.55-2.26a5 5 0 0 1 6.43 4.7l.14 7.54a5 5 0 0 0 .93 2.8l4.35 6.11a5 5 0 0 1-2.47 7.64l-7.3 2.47a5 5 0 0 0-2.36 1.69l-4.74 6.15Z" fill="#B1FAFF"/><path d="M107.38 129.63a3 3 0 0 1-4.76 0l-4.74-6.15a7 7 0 0 0-3.3-2.36l-7.3-2.48a3 3 0 0 1-1.48-4.58l4.35-6.1a7 7 0 0 0 1.3-3.93l.14-7.54a3 3 0 0 1 3.86-2.82l7.55 2.25a7 7 0 0 0 4 0l7.55-2.25a3 3 0 0 1 3.86 2.82l.14 7.54a7 7 0 0 0 1.3 3.93l4.35 6.1a3 3 0 0 1-1.48 4.58l-7.3 2.48a7 7 0 0 0-3.3 2.36l-4.74 6.15 1.58 1.22-1.58-1.22Z" stroke="#fff" stroke-width="4"/></g></g><defs><filter id="a" x="20" y="27" width="169.08" height="152.5" filterUnits="userSpaceOnUse" color-interpolation-filters="sRGB"><feFlood flood-opacity="0" result="BackgroundImageFix"/><feColorMatrix in="SourceAlpha" values="0 0 0 0 0 0 0 0 0 0 0 0 0 0 0 0 0 0 127 0" result="hardAlpha"/><feOffset dy="1"/><feGaussianBlur stdDeviation="2"/><feComposite in2="hardAlpha" operator="out"/><feColorMatrix values="0 0 0 0 0 0 0 0 0 0 0 0 0 0 0 0 0 0 0.25 0"/><feBlend in2="BackgroundImageFix" result="effect1_dropShadow_23:33"/><feBlend in="SourceGraphic" in2="effect1_dropShadow_23:33" result="shape"/></filter><filter id="b" x="57" y=".5" width="95.5" height="204" filterUnits="userSpaceOnUse" color-interpolation-filters="sRGB"><feFlood flood-opacity="0" result="BackgroundImageFix"/><feColorMatrix in="SourceAlpha" values="0 0 0 0 0 0 0 0 0 0 0 0 0 0 0 0 0 0 127 0" result="hardAlpha"/><feOffset/><feGaussianBlur stdDeviation="15"/><feComposite in2="hardAlpha" operator="out"/><feColorMatrix values="0 0 0 0 0 0 0 0 0 0.94 0 0 0 0 1 0 0 0 1 0"/><feBlend in2="BackgroundImageFix" result="effect1_dropShadow_23:33"/><feBlend in="SourceGraphic" in2="effect1_dropShadow_23:33" result="shape"/></filter><filter id="c" x="94.5" y="47.5" width="114.5" height="157.31" filterUnits="userSpaceOnUse" color-interpolation-filters="sRGB"><feFlood flood-opacity="0" result="BackgroundImageFix"/><feColorMatrix in="SourceAlpha" values="0 0 0 0 0 0 0 0 0 0 0 0 0 0 0 0 0 0 127 0" result="hardAlpha"/><feOffset/><feGaussianBlur stdDeviation="15"/><feComposite in2="hardAlpha" operator="out"/><feColorMatrix values="0 0 0 0 0 0 0 0 0 0.94 0 0 0 0 1 0 0 0 0.5 0"/><feBlend in2="BackgroundImageFix" result="effect1_dropShadow_23:33"/><feBlend in="SourceGraphic" in2="effect1_dropShadow_23:33" result="shape"/></filter><filter id="d" x=".14" y="46.39" width="113.74" height="157.67" filterUnits="userSpaceOnUse" color-interpolation-filters="sRGB"><feFlood flood-opacity="0" result="BackgroundImageFix"/><feColorMatrix in="SourceAlpha" values="0 0 0 0 0 0 0 0 0 0 0 0 0 0 0 0 0 0 127 0" result="hardAlpha"/><feOffset/><feGaussianBlur stdDeviation="15"/><feComposite in2="hardAlpha" operator="out"/><feColorMatrix values="0 0 0 0 0 0 0 0 0 0.94 0 0 0 0 1 0 0 0 0.5 0"/><feBlend in2="BackgroundImageFix" result="effect1_dropShadow_23:33"/><feBlend in="SourceGraphic" in2="effect1_dropShadow_23:33" result="shape"/></filter><filter id="e" x="16.37" y="23.2" width="176.34" height="159.3" filterUnits="userSpaceOnUse" color-interpolation-filters="sRGB"><feFlood flood-opacity="0" result="BackgroundImageFix"/><feColorMatrix in="SourceAlpha" values="0 0 0 0 0 0 0 0 0 0 0 0 0 0 0 0 0 0 127 0" result="hardAlpha"/><feOffset dy="1"/><feGaussianBlur stdDeviation="2"/><feComposite in2="hardAlpha" operator="out"/><feColorMatrix values="0 0 0 0 0 0 0 0 0 0 0 0 0 0 0 0 0 0 0.25 0"/><feBlend in2="BackgroundImageFix" result="effect1_dropShadow_23:33"/><feBlend in="SourceGraphic" in2="effect1_dropShadow_23:33" result="shape"/></filter><filter id="f" x="54.33" y="58.2" width="102.06" height="97.05" filterUnits="userSpaceOnUse" color-interpolation-filters="sRGB"><feFlood flood-opacity="0" result="BackgroundImageFix"/><feColorMatrix in="SourceAlpha" values="0 0 0 0 0 0 0 0 0 0 0 0 0 0 0 0 0 0 127 0" result="hardAlpha"/><feOffset/><feGaussianBlur stdDeviation="4"/><feComposite in2="hardAlpha" operator="out"/><feColorMatrix values="0 0 0 0 0 0 0 0 0 0 0 0 0 0 0 0 0 0 0.39 0"/><feBlend in2="BackgroundImageFix" result="effect1_dropShadow_23:33"/><feBlend in="SourceGraphic" in2="effect1_dropShadow_23:33" result="shape"/></filter><filter id="g" x="58.33" y="63.2" width="94.06" height="89.05" filterUnits="userSpaceOnUse" color-interpolation-filters="sRGB"><feFlood flood-opacity="0" result="BackgroundImageFix"/><feColorMatrix in="SourceAlpha" values="0 0 0 0 0 0 0 0 0 0 0 0 0 0 0 0 0 0 127 0" result="hardAlpha"/><feOffset dy="1"/><feGaussianBlur stdDeviation="2"/><feComposite in2="hardAlpha" operator="out"/><feColorMatrix values="0 0 0 0 0 0 0 0 0 0 0 0 0 0 0 0 0 0 0.25 0"/><feBlend in2="BackgroundImageFix" result="effect1_dropShadow_23:33"/><feBlend in="SourceGraphic" in2="effect1_dropShadow_23:33" result="shape"/></filter><filter id="h" x="63.24" y="71.54" width="83.51" height="81.26" filterUnits="userSpaceOnUse" color-interpolation-filters="sRGB"><feFlood flood-opacity="0" result="BackgroundImageFix"/><feColorMatrix in="SourceAlpha" values="0 0 0 0 0 0 0 0 0 0 0 0 0 0 0 0 0 0 127 0" result="hardAlpha"/><feOffset/><feGaussianBlur stdDeviation="10"/><feComposite in2="hardAlpha" operator="out"/><feColorMatrix values="0 0 0 0 0.883333 0 0 0 0 1 0 0 0 0 0.986 0 0 0 1 0"/><feBlend in2="BackgroundImageFix" result="effect1_dropShadow_23:33"/><feColorMatrix in="SourceAlpha" values="0 0 0 0 0 0 0 0 0 0 0 0 0 0 0 0 0 0 127 0" result="hardAlpha"/><feOffset dy="4"/><feGaussianBlur stdDeviation="2"/><feComposite in2="hardAlpha" operator="out"/><feColorMatrix values="0 0 0 0 0 0 0 0 0 0 0 0 0 0 0 0 0 0 0.25 0"/><feBlend in2="effect1_dropShadow_23:33" result="effect2_dropShadow_23:33"/><feBlend in="SourceGraphic" in2="effect2_dropShadow_23:33" result="shape"/></filter></defs></svg>