<svg width="687" height="181" viewBox="0 0 687 181" fill="none" xmlns="http://www.w3.org/2000/svg">
<path d="M5 167.118C35.5 111.451 98.2 1.11769 105 5.11769C113.5 10.1177 93.5 146.118 95 151.118C96.5 156.118 176.5 0.117678 199.5 5.11769" stroke="black" stroke-width="10" stroke-linecap="round"/>
<path d="M193 84.5C191 82.5 185.7 78.7 180.5 79.5C174 80.5 142 142 148.5 149C153.7 154.6 181.333 106.5 193 84.5ZM193 84.5C190.5 104.167 185.5 149 201.5 149C209.5 149 272.8 48.3 274 43.5M228 91.5C240.051 94.0222 245.476 94.3569 259 94.5C266.5 94.5794 272.039 81.4126 274 89.5C278 106 228 138 242.5 142.5C274 145 320.5 119.5 340 123" stroke="black" stroke-width="10" stroke-linecap="round"/>
<path d="M472.5 5C470.5 5 468.4 5.49996 464 7.49996C459.6 9.49996 387.667 112.833 352 165C352 175.062 428.5 159.5 462 159.5C466 159.5 511.5 83.5 531.5 89.5C543.5 99 491.664 137.3 478.464 138.5C471.476 148.167 460 169 470 175C482.5 182.5 510.5 140.5 518.5 143C526.5 145.5 532 157.5 539 172C546 186.5 571.5 125.5 588 126.5C604.5 127.5 602.776 170 628 170C633 170 635.5 141.5 663 144.5C667 145.5 676.4 149.6 682 158M613 74C617.5 70.1667 628.7 62.6 637.5 63" stroke="black" stroke-width="10" stroke-linecap="round"/>
</svg>
