<svg width="128" height="128" viewBox="0 0 128 128" fill="none" xmlns="http://www.w3.org/2000/svg">
<rect width="128" height="128" rx="24" fill="#FFFDF9"/>
<path d="M57.1387 78.1523V58.0273C57.1387 54.4935 57.1087 51.6784 57.0488 49.582C56.9889 47.4258 56.929 45.8385 56.8691 44.8203C56.8092 43.7422 56.7493 43.1133 56.6895 42.9336L50.5801 41.6758L50.8496 38.2617H67.9199L68.1895 41.6758L62.6191 42.9336C62.6191 43.1133 62.5592 43.7422 62.4395 44.8203C62.3796 45.8385 62.3197 47.4258 62.2598 49.582C62.1999 51.6784 62.1699 54.4935 62.1699 58.0273V79.4102C62.1699 81.2669 62.1699 83.2135 62.1699 85.25C62.1699 87.2266 62.1999 89.263 62.2598 91.3594H58.2168L25.1543 46.8867H27.1309V70.9648C27.1309 74.5586 27.1608 77.4635 27.2207 79.6797C27.2806 81.8359 27.3405 83.4232 27.4004 84.4414C27.5202 85.4596 27.61 86.0885 27.6699 86.3281L33.7793 87.5859L33.5098 91H16.2598L15.9902 87.5859L21.4707 86.3281C21.5306 86.0885 21.5905 85.4596 21.6504 84.4414C21.7702 83.4232 21.86 81.8359 21.9199 79.6797C21.9798 77.4635 22.0098 74.5586 22.0098 70.9648V55.6016C22.0098 52.9062 21.9798 50.6901 21.9199 48.9531C21.86 47.2161 21.8001 45.8685 21.7402 44.9102C21.6803 43.9518 21.5905 43.293 21.4707 42.9336L15.9902 41.6758L16.2598 38.2617H28.5684L58.7559 78.1523H57.1387Z" fill="#02375B"/>
<path d="M114.279 91.4492C113.441 91.3294 112.482 91.2396 111.404 91.1797C110.386 91.1198 109.368 91.0599 108.35 91C107.331 91 106.403 91 105.564 91H76.8145L76.6348 87.5859L82.1152 86.3281C82.1751 86.0286 82.235 85.3398 82.2949 84.2617C82.3548 83.1836 82.3848 81.7161 82.3848 79.8594C82.4447 78.0026 82.4746 75.7565 82.4746 73.1211V56.2305C82.4746 53.5352 82.4746 51.2591 82.4746 49.4023C82.4746 47.5456 82.4447 46.0781 82.3848 45C82.3249 43.9219 82.235 43.263 82.1152 43.0234L76.6348 41.6758L76.8145 38.2617H97.9277L98.1973 41.8555L90.7402 43.0234C90.6204 43.2031 90.5007 43.8021 90.3809 44.8203C90.321 45.7786 90.2611 47.2161 90.2012 49.1328C90.2012 50.9896 90.2012 53.3555 90.2012 56.2305V73.1211C90.2012 76.2357 90.2311 78.9609 90.291 81.2969C90.3509 83.5729 90.4108 85.0404 90.4707 85.6992C91.3092 85.7591 92.1777 85.819 93.0762 85.8789C93.9746 85.9388 94.9928 85.9688 96.1309 85.9688H102.869C104.247 85.9688 105.415 85.9388 106.373 85.8789C107.331 85.819 108.29 85.7292 109.248 85.6094L113.92 76.8047L117.963 77.7031L114.279 91.4492Z" fill="#0F5A8C"/>
</svg>
