<svg width="33" height="32" viewBox="0 0 33 32" fill="none" xmlns="http://www.w3.org/2000/svg">
<rect x="8.25" y="8" width="15.125" height="14.6667" fill="white"/>
<path d="M16.5 2.66666C13.7805 2.66666 11.1221 3.44864 8.86091 4.91373C6.59974 6.37881 4.83737 8.4612 3.79666 10.8975C2.75596 13.3339 2.48366 16.0148 3.01421 18.6012C3.54476 21.1876 4.85432 23.5634 6.77729 25.4281C8.70026 27.2928 11.1503 28.5627 13.8175 29.0771C16.4848 29.5916 19.2494 29.3276 21.7619 28.3184C24.2744 27.3092 26.4218 25.6002 27.9327 23.4076C29.4436 21.2149 30.25 18.6371 30.25 16C30.25 14.249 29.8944 12.5152 29.2033 10.8975C28.5123 9.27987 27.4995 7.81001 26.2227 6.5719C24.9459 5.33379 23.4301 4.35166 21.7619 3.6816C20.0937 3.01153 18.3057 2.66666 16.5 2.66666ZM22.4125 12.8133L16.1288 20.8133C16.0007 20.9747 15.8362 21.1054 15.6479 21.1956C15.4596 21.2857 15.2525 21.3328 15.0425 21.3333C14.8337 21.3344 14.6273 21.2894 14.4391 21.2016C14.2509 21.1138 14.0857 20.9856 13.9563 20.8267L10.6013 16.68C10.4902 16.5417 10.4083 16.3835 10.3603 16.2145C10.3123 16.0455 10.2991 15.869 10.3215 15.695C10.3438 15.521 10.4013 15.3531 10.4906 15.2006C10.5799 15.0482 10.6992 14.9143 10.8419 14.8067C11.13 14.5892 11.4954 14.4916 11.8577 14.5353C12.037 14.557 12.2103 14.6127 12.3675 14.6993C12.5246 14.7859 12.6627 14.9017 12.7738 15.04L15.015 17.8133L20.2125 11.1467C20.3227 11.0066 20.4602 10.8889 20.6172 10.8004C20.7743 10.7118 20.9477 10.6542 21.1278 10.6306C21.3078 10.6071 21.4908 10.6182 21.6665 10.6633C21.8421 10.7083 22.0068 10.7865 22.1513 10.8933C22.2957 11.0001 22.4171 11.1335 22.5084 11.2858C22.5997 11.4381 22.6591 11.6063 22.6834 11.7809C22.7077 11.9554 22.6962 12.1329 22.6497 12.3032C22.6033 12.4735 22.5226 12.6332 22.4125 12.7733V12.8133Z" fill="#4ECB71"/>
</svg>
