<svg fill="none" xmlns="http://www.w3.org/2000/svg" viewBox="0 0 196 175"><g filter="url(#a)"><path d="m98 9 67.55 39.25v78.5L98 166l-67.55-39.25v-78.5L98 9Z" fill="#530046"/></g><g filter="url(#b)" shape-rendering="crispEdges"><path d="M64.87 30.1h64.58l25.58 13.5H42.65l22.22-13.5Z" fill="#84006F" fill-opacity=".75"/><path d="m49.79 41.6 15.64-9.5h63.53l18 9.5H49.79Z" stroke="#fff" stroke-opacity=".25" stroke-width="4"/></g><g filter="url(#c)" shape-rendering="crispEdges"><path d="M130.29 144.9H66.13l-23.07-13.5h109.46l-22.23 13.5Z" fill="#84006F" fill-opacity=".75"/><path d="m145.37 133.4-15.64 9.5H66.67l-16.23-9.5h94.93Z" stroke="#fff" stroke-opacity=".25" stroke-width="4"/></g><g filter="url(#d)"><path d="M165.94 102.27H30.48V72.72h135.46V102.28Z" fill="#A6008B"/><path d="M163.94 87.92v12.35H32.48V74.72h131.46v13.2Z" stroke="#fff" stroke-opacity=".65" stroke-width="4"/></g><g filter="url(#e)"><path d="m98 9 67.55 39.25v78.5L98 166l-67.55-39.25v-78.5L98 9Z" stroke="#fff" stroke-width="6" shape-rendering="crispEdges"/></g><g filter="url(#f)"><g filter="url(#g)"><path d="m98 45.3 36.32 21.1v42.2L98 129.7l-36.32-21.1V66.4L98 45.3Z" fill="#CD00AC"/><path d="M63.68 67.55 98 47.6l34.32 19.94v39.9L98 127.4l-34.32-19.94v-39.9Z" stroke="#fff" stroke-width="4"/></g><g filter="url(#h)"><path d="M92.98 69.32a10 10 0 0 1 10.04 0l8.16 4.74a10 10 0 0 1 4.98 8.64v9.6a10 10 0 0 1-4.98 8.64l-8.16 4.74a10 10 0 0 1-10.04 0l-8.16-4.74a10 10 0 0 1-4.98-8.64v-9.6a10 10 0 0 1 4.98-8.64l8.16-4.74Z" fill="#FF00D6"/><path d="m102.02 71.05 8.16 4.74a8 8 0 0 1 3.98 6.91v9.6a8 8 0 0 1-3.98 6.91l-8.16 4.74a8 8 0 0 1-8.04 0l-8.16-4.74a8 8 0 0 1-3.98-6.91v-9.6a8 8 0 0 1 3.98-6.91l8.16-4.74a8 8 0 0 1 8.04 0Z" stroke="#fff" stroke-width="4"/></g></g><defs><filter id="a" x="26.45" y="6" width="143.1" height="165" filterUnits="userSpaceOnUse" color-interpolation-filters="sRGB"><feFlood flood-opacity="0" result="BackgroundImageFix"/><feColorMatrix in="SourceAlpha" values="0 0 0 0 0 0 0 0 0 0 0 0 0 0 0 0 0 0 127 0" result="hardAlpha"/><feOffset dy="1"/><feGaussianBlur stdDeviation="2"/><feComposite in2="hardAlpha" operator="out"/><feColorMatrix values="0 0 0 0 0 0 0 0 0 0 0 0 0 0 0 0 0 0 0.25 0"/><feBlend in2="BackgroundImageFix" result="effect1_dropShadow_23:34"/><feBlend in="SourceGraphic" in2="effect1_dropShadow_23:34" result="shape"/></filter><filter id="b" x="12.64" y=".1" width="172.39" height="73.51" filterUnits="userSpaceOnUse" color-interpolation-filters="sRGB"><feFlood flood-opacity="0" result="BackgroundImageFix"/><feColorMatrix in="SourceAlpha" values="0 0 0 0 0 0 0 0 0 0 0 0 0 0 0 0 0 0 127 0" result="hardAlpha"/><feOffset/><feGaussianBlur stdDeviation="15"/><feComposite in2="hardAlpha" operator="out"/><feColorMatrix values="0 0 0 0 1 0 0 0 0 0 0 0 0 0 0.78 0 0 0 0.5 0"/><feBlend in2="BackgroundImageFix" result="effect1_dropShadow_23:34"/><feBlend in="SourceGraphic" in2="effect1_dropShadow_23:34" result="shape"/></filter><filter id="c" x="13.06" y="101.39" width="169.45" height="73.51" filterUnits="userSpaceOnUse" color-interpolation-filters="sRGB"><feFlood flood-opacity="0" result="BackgroundImageFix"/><feColorMatrix in="SourceAlpha" values="0 0 0 0 0 0 0 0 0 0 0 0 0 0 0 0 0 0 127 0" result="hardAlpha"/><feOffset/><feGaussianBlur stdDeviation="15"/><feComposite in2="hardAlpha" operator="out"/><feColorMatrix values="0 0 0 0 1 0 0 0 0 0 0 0 0 0 0.78 0 0 0 0.5 0"/><feBlend in2="BackgroundImageFix" result="effect1_dropShadow_23:34"/><feBlend in="SourceGraphic" in2="effect1_dropShadow_23:34" result="shape"/></filter><filter id="d" x=".48" y="42.73" width="195.45" height="89.54" filterUnits="userSpaceOnUse" color-interpolation-filters="sRGB"><feFlood flood-opacity="0" result="BackgroundImageFix"/><feColorMatrix in="SourceAlpha" values="0 0 0 0 0 0 0 0 0 0 0 0 0 0 0 0 0 0 127 0" result="hardAlpha"/><feOffset/><feGaussianBlur stdDeviation="15"/><feComposite in2="hardAlpha" operator="out"/><feColorMatrix values="0 0 0 0 1 0 0 0 0 0 0 0 0 0 0.78 0 0 0 1 0"/><feBlend in2="BackgroundImageFix" result="effect1_dropShadow_23:34"/><feBlend in="SourceGraphic" in2="effect1_dropShadow_23:34" result="shape"/></filter><filter id="e" x="23.45" y="2.53" width="149.1" height="171.94" filterUnits="userSpaceOnUse" color-interpolation-filters="sRGB"><feFlood flood-opacity="0" result="BackgroundImageFix"/><feColorMatrix in="SourceAlpha" values="0 0 0 0 0 0 0 0 0 0 0 0 0 0 0 0 0 0 127 0" result="hardAlpha"/><feOffset dy="1"/><feGaussianBlur stdDeviation="2"/><feComposite in2="hardAlpha" operator="out"/><feColorMatrix values="0 0 0 0 0 0 0 0 0 0 0 0 0 0 0 0 0 0 0.25 0"/><feBlend in2="BackgroundImageFix" result="effect1_dropShadow_23:34"/><feBlend in="SourceGraphic" in2="effect1_dropShadow_23:34" result="shape"/></filter><filter id="f" x="51.68" y="35.3" width="92.63" height="104.41" filterUnits="userSpaceOnUse" color-interpolation-filters="sRGB"><feFlood flood-opacity="0" result="BackgroundImageFix"/><feColorMatrix in="SourceAlpha" values="0 0 0 0 0 0 0 0 0 0 0 0 0 0 0 0 0 0 127 0" result="hardAlpha"/><feOffset/><feGaussianBlur stdDeviation="5"/><feComposite in2="hardAlpha" operator="out"/><feColorMatrix values="0 0 0 0 0.429167 0 0 0 0 0 0 0 0 0 0.33475 0 0 0 1 0"/><feBlend in2="BackgroundImageFix" result="effect1_dropShadow_23:34"/><feColorMatrix in="SourceAlpha" values="0 0 0 0 0 0 0 0 0 0 0 0 0 0 0 0 0 0 127 0" result="hardAlpha"/><feOffset dy="4"/><feGaussianBlur stdDeviation="2"/><feComposite in2="hardAlpha" operator="out"/><feColorMatrix values="0 0 0 0 0.516667 0 0 0 0 0 0 0 0 0 0.434 0 0 0 0.75 0"/><feBlend in2="effect1_dropShadow_23:34" result="effect2_dropShadow_23:34"/><feBlend in="SourceGraphic" in2="effect2_dropShadow_23:34" result="shape"/></filter><filter id="g" x="31.68" y="15.3" width="132.63" height="144.41" filterUnits="userSpaceOnUse" color-interpolation-filters="sRGB"><feFlood flood-opacity="0" result="BackgroundImageFix"/><feColorMatrix in="SourceAlpha" values="0 0 0 0 0 0 0 0 0 0 0 0 0 0 0 0 0 0 127 0" result="hardAlpha"/><feOffset/><feGaussianBlur stdDeviation="15"/><feComposite in2="hardAlpha" operator="out"/><feColorMatrix values="0 0 0 0 0.241667 0 0 0 0 0 0 0 0 0 0.1885 0 0 0 1 0"/><feBlend in2="BackgroundImageFix" result="effect1_dropShadow_23:34"/><feColorMatrix in="SourceAlpha" values="0 0 0 0 0 0 0 0 0 0 0 0 0 0 0 0 0 0 127 0" result="hardAlpha"/><feOffset dy="4"/><feGaussianBlur stdDeviation="2"/><feComposite in2="hardAlpha" operator="out"/><feColorMatrix values="0 0 0 0 0 0 0 0 0 0 0 0 0 0 0 0 0 0 0.25 0"/><feBlend in2="effect1_dropShadow_23:34" result="effect2_dropShadow_23:34"/><feBlend in="SourceGraphic" in2="effect2_dropShadow_23:34" result="shape"/></filter><filter id="h" x="75.84" y="64.96" width="44.32" height="47.07" filterUnits="userSpaceOnUse" color-interpolation-filters="sRGB"><feFlood flood-opacity="0" result="BackgroundImageFix"/><feColorMatrix in="SourceAlpha" values="0 0 0 0 0 0 0 0 0 0 0 0 0 0 0 0 0 0 127 0" result="hardAlpha"/><feOffset dy="1"/><feGaussianBlur stdDeviation="2"/><feComposite in2="hardAlpha" operator="out"/><feColorMatrix values="0 0 0 0 0 0 0 0 0 0 0 0 0 0 0 0 0 0 0.25 0"/><feBlend in2="BackgroundImageFix" result="effect1_dropShadow_23:34"/><feBlend in="SourceGraphic" in2="effect1_dropShadow_23:34" result="shape"/></filter></defs></svg>