<svg width="30" height="30" viewBox="0 0 30 30" fill="none" xmlns="http://www.w3.org/2000/svg">
<rect x="8.75" y="7.5" width="12.5" height="13.75" fill="white"/>
<path fill-rule="evenodd" clip-rule="evenodd" d="M15 1.25C7.40625 1.25 1.25 7.40625 1.25 15C1.25 22.5937 7.40625 28.75 15 28.75C22.5937 28.75 28.75 22.5937 28.75 15C28.75 7.40625 22.5937 1.25 15 1.25ZM19.6337 12.1337C19.8614 11.898 19.9874 11.5822 19.9846 11.2545C19.9817 10.9268 19.8503 10.6132 19.6185 10.3815C19.3868 10.1497 19.0732 10.0183 18.7455 10.0154C18.4178 10.0126 18.102 10.1386 17.8663 10.3663L15 13.2325L12.1337 10.3663C12.0184 10.2469 11.8805 10.1516 11.728 10.0861C11.5755 10.0206 11.4115 9.98613 11.2455 9.98469C11.0795 9.98324 10.9149 10.0149 10.7613 10.0777C10.6077 10.1406 10.4681 10.2334 10.3508 10.3508C10.2334 10.4681 10.1406 10.6077 10.0777 10.7613C10.0149 10.9149 9.98324 11.0795 9.98469 11.2455C9.98613 11.4115 10.0206 11.5755 10.0861 11.728C10.1516 11.8805 10.2469 12.0184 10.3663 12.1337L13.2325 15L10.3663 17.8663C10.2469 17.9816 10.1516 18.1195 10.0861 18.272C10.0206 18.4245 9.98613 18.5885 9.98469 18.7545C9.98324 18.9205 10.0149 19.0851 10.0777 19.2387C10.1406 19.3923 10.2334 19.5319 10.3508 19.6492C10.4681 19.7666 10.6077 19.8594 10.7613 19.9223C10.9149 19.9851 11.0795 20.0168 11.2455 20.0153C11.4115 20.0139 11.5755 19.9794 11.728 19.9139C11.8805 19.8484 12.0184 19.7531 12.1337 19.6337L15 16.7675L17.8663 19.6337C18.102 19.8614 18.4178 19.9874 18.7455 19.9846C19.0732 19.9817 19.3868 19.8503 19.6185 19.6185C19.8503 19.3868 19.9817 19.0732 19.9846 18.7455C19.9874 18.4178 19.8614 18.102 19.6337 17.8663L16.7675 15L19.6337 12.1337Z" fill="#F24E1E"/>
</svg>
