<svg width="21" height="22" viewBox="0 0 21 22" fill="none" xmlns="http://www.w3.org/2000/svg">
<path opacity="0.3" d="M2 1C2 0.447715 1.55228 0 1 0C0.447715 0 0 0.447715 0 1H2ZM20.7071 14.641C21.0976 14.2505 21.0976 13.6173 20.7071 13.2268L14.3431 6.86286C13.9526 6.47234 13.3195 6.47234 12.9289 6.86286C12.5384 7.25339 12.5384 7.88655 12.9289 8.27708L18.5858 13.9339L12.9289 19.5908C12.5384 19.9813 12.5384 20.6145 12.9289 21.005C13.3195 21.3955 13.9526 21.3955 14.3431 21.005L20.7071 14.641ZM0 1C0 4.74965 0.512316 7.56656 1.53368 9.65998C2.57386 11.792 4.11472 13.1162 6.02174 13.903C7.88636 14.6723 10.0684 14.9143 12.3942 14.9795C14.695 15.044 17.3398 14.9339 20 14.9339V12.9339C17.1977 12.9339 14.7363 13.0443 12.4503 12.9803C10.1894 12.9169 8.30426 12.6812 6.78451 12.0542C5.30716 11.4447 4.14645 10.4541 3.33116 8.78301C2.49706 7.07342 2 4.59918 2 1H0Z" fill="black"/>
</svg>
